<svg width="1376" height="544" viewBox="0 0 1376 544" fill="none" xmlns="http://www.w3.org/2000/svg">
<g clip-path="url(#clip0_212_16580)" filter="url(#filter0_f_212_16580)">
<path opacity="0.15" d="M1310.19 237.88C1343.7 274.97 1370.88 339.451 1320.8 384.973C1315.63 389.666 1267.18 432.248 1194.3 426.96C1105.54 420.52 1087.34 350.812 989.382 332.716C883.298 313.119 821.037 379.425 769.231 359.056C707.971 334.97 700.451 205.071 811.331 149.396C944.906 82.3255 1220.08 138.151 1310.19 237.88Z" fill="#EBC136"/>
<path opacity="0.15" d="M475.245 429.639C506.307 410.569 540.155 372.148 519.134 333.285C516.966 329.278 496.262 292.654 447.679 283.834C388.505 273.09 359.162 316.52 291.092 311.996C217.375 307.096 193.688 252.301 154.971 257.114C109.189 262.806 71.6267 348.21 129.513 404.149C199.248 471.538 391.723 480.917 475.245 429.639Z" fill="#EBC136"/>
<path opacity="0.15" d="M657.575 321.89C642.187 300.799 626.464 260.221 639.947 222.859C641.337 219.007 654.519 183.857 680.877 178.297C712.983 171.526 726.013 216.799 762.481 216.823C801.973 216.849 817.817 163.774 838.122 171.155C862.131 179.883 877.044 267.57 842.944 319.508C801.865 382.075 698.953 378.602 657.575 321.89Z" fill="#EBC136"/>
<path opacity="0.15" d="M645.467 274.802C662.285 264.124 680.622 242.633 669.277 220.936C668.107 218.699 656.931 198.254 630.654 193.363C598.649 187.407 582.745 211.693 545.923 209.218C506.047 206.538 493.27 175.943 472.322 178.661C447.55 181.876 427.171 229.62 458.448 260.828C496.128 298.423 600.247 303.514 645.467 274.802Z" fill="#EBC136"/>
<path opacity="0.15" d="M1369.62 248.365C1387.76 232.046 1407.7 199.494 1395.95 167.192C1394.74 163.861 1383.14 133.43 1355.17 126.595C1321.09 118.269 1303.7 154.965 1264.42 151.946C1221.89 148.678 1208.75 103.066 1186.34 107.534C1159.83 112.818 1137.28 184.751 1170.15 230.934C1209.76 286.569 1320.86 292.244 1369.62 248.365Z" fill="#8047F8"/>
<path opacity="0.15" d="M1381.61 377.852C1395.71 388.804 1411.15 410.725 1401.84 432.622C1400.88 434.88 1391.7 455.511 1369.82 460.261C1343.16 466.047 1329.73 441.312 1299.03 443.533C1265.79 445.938 1255.35 476.841 1237.86 473.922C1217.17 470.471 1199.84 421.932 1225.71 390.552C1256.88 352.749 1343.69 348.404 1381.61 377.852Z" fill="#8047F8"/>
<path opacity="0.15" d="M182.937 136.891C195.507 158.616 207.932 200.056 195.695 237.491C194.433 241.351 182.5 276.558 160.055 281.502C132.717 287.524 122.675 241.405 91.7918 240.442C58.347 239.4 43.7653 292.665 26.7319 284.678C6.59039 275.234 -4.117 186.175 25.8998 134.53C62.0604 72.3152 149.139 78.4762 182.937 136.891Z" fill="#EBC136"/>
<path opacity="0.15" d="M824.507 432.947C798.621 413.727 773.462 375.18 799.926 336.528C802.654 332.543 828.434 296.123 875.6 287.62C933.048 277.262 953.109 320.78 1017.84 316.683C1087.94 312.246 1119.66 257.712 1155.2 262.753C1197.23 268.713 1217.76 354.166 1153.71 409.631C1076.55 476.449 894.112 484.627 824.507 432.947Z" fill="#EBC136"/>
<path opacity="0.15" d="M750.922 399.538C772.564 380.513 795.249 343.904 777.967 310.187C776.185 306.71 759.248 274.989 723.43 269.962C679.805 263.84 660.654 304.687 610.868 304.695C556.953 304.704 536.92 256.808 508.979 263.46C475.939 271.327 452.942 350.444 497.931 397.321C552.129 453.792 692.728 450.695 750.922 399.538Z" fill="#8047F8"/>
<path opacity="0.15" d="M798.472 141.004C839.019 151.666 882.079 171.465 851.336 188.257C848.167 189.989 817.993 205.762 752.11 207.009C671.863 208.528 635.181 186.67 543.369 184.784C443.942 182.742 408.601 206.767 356.852 202.269C295.659 196.95 250.602 155.145 332 132.591C430.058 105.42 689.443 112.335 798.472 141.004Z" fill="#8047F8"/>
<path opacity="0.15" d="M131.139 382.866C150.225 360.714 170.35 318.381 155.454 279.978C153.918 276.018 139.31 239.899 107.98 234.685C69.82 228.335 52.7611 275.475 9.16319 276.25C-38.0509 277.089 -55.2558 222.467 -79.7709 230.526C-108.76 240.056 -129.458 331.145 -90.3915 384.214C-43.3292 448.144 79.8163 442.431 131.139 382.866Z" fill="#8047F8"/>
</g>
<defs>
<filter id="filter0_f_212_16580" x="-224" y="-160" width="1760" height="864" filterUnits="userSpaceOnUse" color-interpolation-filters="sRGB">
<feFlood flood-opacity="0" result="BackgroundImageFix"/>
<feBlend mode="normal" in="SourceGraphic" in2="BackgroundImageFix" result="shape"/>
<feGaussianBlur stdDeviation="80" result="effect1_foregroundBlur_212_16580"/>
</filter>
<clipPath id="clip0_212_16580">
<rect width="1440" height="544" fill="white" transform="translate(-64)"/>
</clipPath>
</defs>
</svg>
